<svg width="20" height="20" viewBox="0 0 20 20" fill="none" xmlns="http://www.w3.org/2000/svg">
<circle cx="10" cy="10" r="10" fill="#D6271F"/>
<g clip-path="url(#clip0_50_390)">
<path d="M8.75 4.75V5.5H11.75V4.75C11.75 4.33586 12.0852 4 12.5 4C12.9148 4 13.25 4.33586 13.25 4.75V5.5H14.375C14.9961 5.5 15.5 6.00367 15.5 6.625V7.75H5V6.625C5 6.00367 5.50367 5.5 6.125 5.5H7.25V4.75C7.25 4.33586 7.58516 4 8 4C8.41484 4 8.75 4.33586 8.75 4.75ZM5 8.5H15.5V14.875C15.5 15.4961 14.9961 16 14.375 16H6.125C5.50367 16 5 15.4961 5 14.875V8.5ZM6.5 11.125C6.5 11.3313 6.66781 11.5 6.875 11.5H7.625C7.83125 11.5 8 11.3313 8 11.125V10.375C8 10.1687 7.83125 10 7.625 10H6.875C6.66781 10 6.5 10.1687 6.5 10.375V11.125ZM9.5 11.125C9.5 11.3313 9.66875 11.5 9.875 11.5H10.625C10.8313 11.5 11 11.3313 11 11.125V10.375C11 10.1687 10.8313 10 10.625 10H9.875C9.66875 10 9.5 10.1687 9.5 10.375V11.125ZM12.875 10C12.6687 10 12.5 10.1687 12.5 10.375V11.125C12.5 11.3313 12.6687 11.5 12.875 11.5H13.625C13.8313 11.5 14 11.3313 14 11.125V10.375C14 10.1687 13.8313 10 13.625 10H12.875ZM6.5 14.125C6.5 14.3313 6.66781 14.5 6.875 14.5H7.625C7.83125 14.5 8 14.3313 8 14.125V13.375C8 13.1687 7.83125 13 7.625 13H6.875C6.66781 13 6.5 13.1687 6.5 13.375V14.125ZM9.875 13C9.66875 13 9.5 13.1687 9.5 13.375V14.125C9.5 14.3313 9.66875 14.5 9.875 14.5H10.625C10.8313 14.5 11 14.3313 11 14.125V13.375C11 13.1687 10.8313 13 10.625 13H9.875ZM12.5 14.125C12.5 14.3313 12.6687 14.5 12.875 14.5H13.625C13.8313 14.5 14 14.3313 14 14.125V13.375C14 13.1687 13.8313 13 13.625 13H12.875C12.6687 13 12.5 13.1687 12.5 13.375V14.125Z" fill="white"/>
</g>
<defs>
<clipPath id="clip0_50_390">
<rect width="10.5" height="12" fill="white" transform="translate(5 4)"/>
</clipPath>
</defs>
</svg>
