<svg width="1013" height="354" viewBox="0 0 1013 354" fill="none" xmlns="http://www.w3.org/2000/svg">
<path d="M116.169 91.0698L82.1177 287.032H37.0301L71.0813 91.0698H116.169ZM162.199 91.0698L155.873 127.544H19.8026L26.2629 91.0698H162.199ZM228.282 91.0698L194.366 287.032H149.413L183.464 91.0698H228.282ZM337.838 250.693L331.512 287.032H251.297L257.757 250.693H337.838ZM301.23 91.0698L267.179 287.032H222.495L256.277 91.0698H301.23ZM451.701 134.408L390.463 287.032H340.934L433.532 91.0698H464.756L451.701 134.408ZM453.316 287.032L444.702 129.832L445.779 91.0698H475.524L500.288 287.032H453.316ZM467.179 213.95L460.719 250.424H378.081L384.541 213.95H467.179ZM549.279 91.0698L611.998 91.2044C623.572 91.4735 633.532 93.9859 641.877 98.7414C650.311 103.407 656.637 110.047 660.854 118.661C665.071 127.185 666.776 137.324 665.968 149.078C665.25 159.038 663.366 167.741 660.315 175.188C657.265 182.636 652.823 189.141 646.991 194.704C641.248 200.177 633.981 205.022 625.187 209.24L609.037 217.853H555.739L561.796 181.38L595.712 181.783C601.275 181.604 605.762 180.213 609.171 177.611C612.581 174.919 615.183 171.465 616.977 167.248C618.772 162.941 619.938 158.32 620.477 153.385C621.015 150.065 621.419 146.476 621.688 142.618C621.957 138.67 621.329 135.305 619.804 132.523C618.278 129.652 615.183 128.037 610.517 127.678L588.041 127.544L560.181 287.032H515.497L549.279 91.0698ZM600.557 287.032L581.984 200.357L627.475 200.087L648.606 284.744V287.032H600.557ZM765.295 134.408L704.057 287.032H654.528L747.126 91.0698H778.35L765.295 134.408ZM766.91 287.032L758.297 129.832L759.373 91.0698H789.118L813.882 287.032H766.91ZM780.773 213.95L774.313 250.424H691.675L698.135 213.95H780.773ZM999.885 91.0698L965.969 287.032H922.227L895.309 163.344L873.775 287.032H828.956L862.738 91.0698H906.749L933.667 214.758L955.067 91.0698H999.885Z" fill="white"/>
<path d="M1001.88 75.8571L1012.36 18.3896H996.635L966.349 75.8571H1001.88Z" fill="white"/>
<path d="M933.151 18.3896H959.942L928.491 75.8571H902.865L933.151 18.3896Z" fill="white"/>
<path d="M898.205 18.3896H918.007L888.304 75.8571H867.919L898.205 18.3896Z" fill="white"/>
<path d="M856.27 18.3896H876.073L846.369 75.8571H825.984L856.27 18.3896Z" fill="white"/>
<path d="M806.182 18.3896H825.984L796.281 75.8571H775.896L806.182 18.3896Z" fill="white"/>
<path d="M764.248 18.3896H784.05L754.347 75.8571H733.962L764.248 18.3896Z" fill="white"/>
<path d="M497.498 33.3312H494.004V47.1234L497.498 33.3312Z" fill="white"/>
<path d="M526.036 37.9285L519.047 75.857H533.025C527.899 70.7999 527.783 57.659 528.365 51.7207L530.695 37.9285H526.036Z" fill="white"/>
<path d="M616.896 41.3766C629.476 56.548 622.138 70.685 616.896 75.8571H721.15L751.436 18.3896H622.138C628.661 21.6078 628.738 35.0552 627.962 41.3766H616.896Z" fill="white"/>
<path d="M582.532 75.8571H570.884C573.68 74.0181 576.708 68.5778 577.873 66.0876C577.873 70.2252 580.979 74.3246 582.532 75.8571Z" fill="white"/>
<path d="M580.204 52.2955L582.534 41.9513C582.999 47.0084 587.387 50.9545 589.523 52.2955H580.204Z" fill="white"/>
<path d="M590.104 18.3896H576.708C579.97 20.6883 581.95 27.3928 582.532 30.4578C582.532 24.9409 587.58 20.1136 590.104 18.3896Z" fill="white"/>
<path d="M601.808 59.8268C601.808 57.5281 599.866 56.5703 598.896 56.3787C597.293 56.0624 597.731 56.9534 597.731 59.8268C597.731 62.1255 599.284 62.7001 600.06 62.7001C600.643 62.7001 601.808 62.1255 601.808 59.8268Z" fill="white"/>
<path d="M551.091 56.7022C551.58 48.4162 553.538 37.541 553.538 37.0231C554.516 32.3623 560.687 31.3265 560.389 38.5767C559.998 48.1055 557.942 55.6664 556.963 58.2558C555.201 62.9166 550.846 60.8451 551.091 56.7022Z" fill="white"/>
<path d="M49.182 18.1536L39.1304 76H25.821L35.8726 18.1536H49.182ZM62.7696 18.1536L60.9023 28.9204H20.7356L22.6426 18.1536H62.7696ZM93.4408 65.273L91.5735 76H66.9412L68.8482 65.273H93.4408ZM81.6411 18.1536L71.5895 76H58.3993L68.3714 18.1536H81.6411ZM94.4341 41.1174L92.6462 51.4868H71.232L73.0595 41.1174H94.4341ZM101.744 18.1536L99.877 28.9204H75.0857L76.9928 18.1536H101.744ZM126.178 56.453L139.09 56.2941C138.984 60.4525 137.938 64.0943 135.952 67.2197C133.992 70.3187 131.369 72.7157 128.085 74.4108C124.827 76.0795 121.132 76.8741 117.001 76.7946C113.398 76.7151 110.432 75.9338 108.101 74.4505C105.77 72.9408 103.969 70.9543 102.698 68.4911C101.426 66.0014 100.619 63.2468 100.274 60.2273C99.9565 57.2079 99.983 54.1619 100.354 51.0895L101.625 43.0244C102.102 39.8195 102.91 36.6809 104.049 33.6085C105.214 30.5096 106.764 27.7152 108.697 25.2255C110.631 22.7358 112.975 20.7758 115.729 19.3455C118.51 17.9153 121.715 17.2399 125.344 17.3193C129.555 17.3988 132.972 18.3655 135.594 20.2196C138.216 22.0736 140.136 24.5633 141.355 27.6887C142.573 30.8141 143.169 34.3236 143.143 38.2171L129.833 38.1376C130.072 36.4425 130.138 34.8666 130.032 33.4098C129.952 31.9266 129.502 30.7082 128.681 29.7547C127.886 28.8012 126.469 28.2847 124.43 28.2052C122.496 28.1258 120.947 28.5628 119.782 29.5163C118.616 30.4698 117.729 31.7279 117.12 33.2906C116.511 34.8268 116.06 36.4558 115.769 38.1774C115.504 39.899 115.279 41.4882 115.093 42.9449L113.902 51.1292C113.769 52.2682 113.557 53.6587 113.266 55.3009C113.001 56.943 112.882 58.5587 112.908 60.1479C112.961 61.7371 113.332 63.0879 114.021 64.2003C114.736 65.2862 116.007 65.8822 117.835 65.9881C119.848 66.0411 121.45 65.657 122.642 64.836C123.834 63.9884 124.695 62.8362 125.225 61.3795C125.781 59.8962 126.099 58.2541 126.178 56.453ZM192.606 18.1536L182.594 76H169.682L161.736 39.4885L155.379 76H142.149L152.122 18.1536H165.113L173.059 54.6652L179.376 18.1536H192.606ZM214.1 18.1536L204.088 76H190.818L200.87 18.1536H214.1ZM240.997 18.1536L259.511 18.1934C262.928 18.2728 265.868 19.0144 268.331 20.4182C270.82 21.7955 272.688 23.7555 273.933 26.2982C275.177 28.8144 275.681 31.8074 275.442 35.2771C275.23 38.2171 274.674 40.7863 273.774 42.9847C272.873 45.183 271.562 47.1033 269.84 48.7455C268.145 50.3611 266 51.7914 263.404 53.0363L258.637 55.579H242.904L244.692 44.8122L254.703 44.9314C256.346 44.8784 257.67 44.4679 258.676 43.6998C259.683 42.9052 260.451 41.8855 260.981 40.6406C261.51 39.3693 261.855 38.0052 262.014 36.5485C262.173 35.5685 262.292 34.509 262.371 33.3701C262.451 32.2047 262.265 31.2114 261.815 30.3904C261.365 29.5428 260.451 29.066 259.074 28.9601L252.439 28.9204L244.215 76H231.025L240.997 18.1536ZM256.134 76L250.651 50.4141L264.08 50.3346L270.317 75.3246V76H256.134ZM310.762 65.273L308.895 76H284.262L286.169 65.273H310.762ZM298.962 18.1536L288.911 76H275.72L285.693 18.1536H298.962ZM311.755 41.1174L309.967 51.4868H288.553L290.381 41.1174H311.755ZM319.066 18.1536L317.198 28.9204H292.407L294.314 18.1536H319.066ZM337.937 56.4133L325.978 56.3736L327.846 45.6068L338.454 45.6863C340.043 45.6598 341.354 45.2625 342.387 44.4944C343.42 43.7263 344.214 42.733 344.771 41.5147C345.353 40.2698 345.751 38.9455 345.962 37.5417C346.121 36.5352 346.214 35.3831 346.241 34.0852C346.294 32.7874 346.068 31.6352 345.565 30.6287C345.088 29.6223 344.135 29.066 342.705 28.9601L335.672 28.9204L327.448 76H314.258L324.23 18.1536L343.102 18.1934C346.757 18.2993 349.843 19.2263 352.359 20.9744C354.875 22.7225 356.742 25.0269 357.961 27.8874C359.179 30.7479 359.643 33.9395 359.351 37.4622C359.034 41.3557 357.895 44.7195 355.935 47.5536C354.001 50.3876 351.485 52.586 348.386 54.1487C345.287 55.6849 341.804 56.4398 337.937 56.4133ZM394.393 18.1536H407.663L400.948 57.5257C400.419 61.5252 399.24 64.9949 397.412 67.9349C395.611 70.8484 393.201 73.0865 390.182 74.6492C387.162 76.1854 383.586 76.927 379.455 76.8741C375.561 76.7946 372.303 75.9603 369.681 74.3711C367.059 72.7554 365.152 70.5173 363.96 67.6568C362.795 64.7698 362.424 61.3927 362.848 57.5257L369.522 18.1536H382.871L376.236 57.5654C376.051 58.9427 375.945 60.2803 375.919 61.5781C375.892 62.8495 376.184 63.9089 376.793 64.7565C377.402 65.5776 378.581 66.0146 380.329 66.0676C382.183 66.1735 383.6 65.8425 384.58 65.0743C385.56 64.3062 386.275 63.26 386.725 61.9357C387.175 60.5849 387.506 59.1281 387.718 57.5654L394.393 18.1536ZM440.281 65.273L438.413 76H413.781L415.688 65.273H440.281ZM428.481 18.1536L418.429 76H405.239L415.211 18.1536H428.481ZM441.274 41.1174L439.486 51.4868H418.072L419.899 41.1174H441.274ZM448.584 18.1536L446.717 28.9204H421.926L423.833 18.1536H448.584ZM470.038 60.3068C470.224 59.2738 470.237 58.3468 470.078 57.5257C469.919 56.7046 469.601 55.9895 469.124 55.3803C468.674 54.7446 468.078 54.1619 467.337 53.6322C466.621 53.1025 465.827 52.6125 464.953 52.1622C463.019 51.2352 461.205 50.2022 459.51 49.0633C457.815 47.8979 456.318 46.5868 455.02 45.1301C453.749 43.6733 452.782 42.0312 452.12 40.2036C451.484 38.376 451.233 36.2836 451.365 33.9263C451.524 31.2777 452.2 28.9204 453.391 26.8544C454.583 24.762 456.146 23.0139 458.08 21.6101C460.013 20.1798 462.172 19.1071 464.555 18.392C466.939 17.6504 469.363 17.3061 471.826 17.359C475.375 17.412 478.355 18.2331 480.765 19.8223C483.175 21.4115 484.99 23.5569 486.208 26.2585C487.426 28.9601 487.996 31.9796 487.916 35.3168L474.766 35.3566C474.792 34.2706 474.766 33.1582 474.687 32.0193C474.607 30.8804 474.276 29.9269 473.693 29.1587C473.137 28.3642 472.144 27.9536 470.714 27.9271C469.575 27.9006 468.568 28.1787 467.694 28.7614C466.82 29.3442 466.105 30.1123 465.549 31.0658C465.019 31.9928 464.661 32.986 464.476 34.0455C464.317 34.946 464.383 35.7671 464.675 36.5087C464.966 37.2504 465.403 37.9258 465.986 38.5349C466.568 39.1441 467.217 39.6871 467.932 40.1639C468.674 40.6406 469.376 41.0644 470.038 41.4352C472.131 42.3887 474.011 43.4614 475.68 44.6533C477.348 45.8452 478.765 47.196 479.931 48.7057C481.123 50.189 481.997 51.8841 482.553 53.7911C483.136 55.6717 483.348 57.8171 483.189 60.2273C483.003 62.9289 482.368 65.326 481.282 67.4184C480.196 69.4843 478.765 71.2324 476.991 72.6627C475.216 74.0665 473.19 75.1259 470.912 75.8411C468.634 76.5297 466.184 76.8608 463.562 76.8343C460.675 76.7549 458.093 76.2384 455.815 75.2849C453.564 74.3049 451.67 72.9408 450.134 71.1927C448.597 69.4446 447.445 67.3919 446.677 65.0346C445.909 62.6508 445.551 60.0419 445.604 57.2079L458.954 57.2476C458.874 58.413 458.848 59.5387 458.874 60.6246C458.901 61.7106 459.073 62.6773 459.391 63.5249C459.708 64.3725 460.251 65.0479 461.02 65.5511C461.814 66.0279 462.94 66.2662 464.397 66.2662C465.588 66.2662 466.568 66.0014 467.337 65.4716C468.105 64.9154 468.701 64.1871 469.124 63.2865C469.575 62.3595 469.879 61.3662 470.038 60.3068ZM521.806 18.1536L511.754 76H498.445L508.496 18.1536H521.806ZM535.393 18.1536L533.526 28.9204H493.359L495.266 18.1536H535.393ZM576.394 42.5079L575.044 51.2484C574.567 54.6122 573.719 57.8436 572.501 60.9425C571.309 64.0149 569.72 66.7562 567.733 69.1665C565.747 71.5768 563.323 73.4838 560.463 74.8876C557.629 76.2649 554.358 76.9005 550.65 76.7946C547.1 76.7151 544.134 75.947 541.75 74.4903C539.366 73.0335 537.499 71.1133 536.148 68.7295C534.797 66.3192 533.91 63.6308 533.486 60.6644C533.063 57.6714 533.036 54.6122 533.407 51.4868L534.718 42.7066C535.195 39.4222 536.029 36.2439 537.221 33.1714C538.439 30.099 540.055 27.3577 542.068 24.9474C544.081 22.5107 546.504 20.6169 549.339 19.2661C552.199 17.8888 555.483 17.2531 559.191 17.359C562.688 17.412 565.614 18.1669 567.972 19.6236C570.356 21.0804 572.223 23.0007 573.574 25.3844C574.951 27.7682 575.851 30.4566 576.275 33.4495C576.726 36.416 576.765 39.4355 576.394 42.5079ZM561.615 51.4868L562.966 42.5874C563.098 41.4485 563.244 40.0976 563.403 38.5349C563.562 36.9458 563.562 35.3831 563.403 33.8468C563.244 32.3106 562.78 31.0128 562.012 29.9533C561.244 28.8939 560.013 28.3244 558.317 28.245C556.304 28.1125 554.689 28.5098 553.47 29.4369C552.252 30.3374 551.285 31.5425 550.57 33.0523C549.882 34.5355 549.365 36.1379 549.021 37.8595C548.676 39.5547 548.398 41.1571 548.186 42.6668L546.875 51.5265C546.743 52.6655 546.584 54.0295 546.399 55.6187C546.24 57.1814 546.226 58.7441 546.359 60.3068C546.491 61.8695 546.942 63.1806 547.71 64.24C548.504 65.2995 549.762 65.8689 551.484 65.9484C553.417 66.0543 554.993 65.6438 556.212 64.7168C557.457 63.7898 558.437 62.5714 559.152 61.0617C559.893 59.5519 560.436 57.9495 560.781 56.2544C561.151 54.5327 561.43 52.9436 561.615 51.4868ZM603.848 60.3068C604.033 59.2738 604.046 58.3468 603.887 57.5257C603.728 56.7046 603.411 55.9895 602.934 55.3803C602.484 54.7446 601.888 54.1619 601.146 53.6322C600.431 53.1025 599.636 52.6125 598.762 52.1622C596.829 51.2352 595.014 50.2022 593.319 49.0633C591.624 47.8979 590.128 46.5868 588.83 45.1301C587.558 43.6733 586.592 42.0312 585.93 40.2036C585.294 38.376 585.042 36.2836 585.175 33.9263C585.334 31.2777 586.009 28.9204 587.201 26.8544C588.393 24.762 589.956 23.0139 591.889 21.6101C593.823 20.1798 595.981 19.1071 598.365 18.392C600.749 17.6504 603.172 17.3061 605.635 17.359C609.185 17.412 612.164 18.2331 614.575 19.8223C616.985 21.4115 618.799 23.5569 620.018 26.2585C621.236 28.9601 621.805 31.9796 621.726 35.3168L608.575 35.3566C608.602 34.2706 608.575 33.1582 608.496 32.0193C608.417 30.8804 608.085 29.9269 607.503 29.1587C606.947 28.3642 605.953 27.9536 604.523 27.9271C603.384 27.9006 602.378 28.1787 601.504 28.7614C600.63 29.3442 599.914 30.1123 599.358 31.0658C598.828 31.9928 598.471 32.986 598.285 34.0455C598.127 34.946 598.193 35.7671 598.484 36.5087C598.775 37.2504 599.213 37.9258 599.795 38.5349C600.378 39.1441 601.027 39.6871 601.742 40.1639C602.484 40.6406 603.185 41.0644 603.848 41.4352C605.94 42.3887 607.821 43.4614 609.489 44.6533C611.158 45.8452 612.575 47.196 613.74 48.7057C614.932 50.189 615.806 51.8841 616.362 53.7911C616.945 55.6717 617.157 57.8171 616.998 60.2273C616.813 62.9289 616.177 65.326 615.091 67.4184C614.005 69.4843 612.575 71.2324 610.8 72.6627C609.026 74.0665 607 75.1259 604.722 75.8411C602.444 76.5297 599.994 76.8608 597.372 76.8343C594.485 76.7549 591.902 76.2384 589.624 75.2849C587.373 74.3049 585.479 72.9408 583.943 71.1927C582.407 69.4446 581.255 67.3919 580.487 65.0346C579.718 62.6508 579.361 60.0419 579.414 57.2079L592.763 57.2476C592.684 58.413 592.657 59.5387 592.684 60.6246C592.71 61.7106 592.882 62.6773 593.2 63.5249C593.518 64.3725 594.061 65.0479 594.829 65.5511C595.624 66.0279 596.749 66.2662 598.206 66.2662C599.398 66.2662 600.378 66.0014 601.146 65.4716C601.914 64.9154 602.51 64.1871 602.934 63.2865C603.384 62.3595 603.689 61.3662 603.848 60.3068Z" fill="#D6271F"/>
</svg>
