<svg width="1010" height="353" viewBox="0 0 1010 353" fill="none" xmlns="http://www.w3.org/2000/svg">
<path d="M115.841 90.5356L81.8857 285.945H36.9255L70.8805 90.5356H115.841ZM161.74 90.5356L155.432 126.906H19.7466L26.1887 90.5356H161.74ZM227.637 90.5356L193.816 285.945H148.99L182.945 90.5356H227.637ZM336.884 249.708L330.576 285.945H250.587L257.029 249.708H336.884ZM300.379 90.5356L266.424 285.945H221.866L255.553 90.5356H300.379ZM450.425 133.751L389.36 285.945H339.971L432.307 90.5356H463.443L450.425 133.751ZM452.036 285.945L443.446 129.188L444.52 90.5356H474.18L498.875 285.945H452.036ZM465.859 213.069L459.417 249.44H377.012L383.455 213.069H465.859ZM547.727 90.5356L610.269 90.6698C621.811 90.9382 631.742 93.4435 640.063 98.1855C648.474 102.838 654.782 109.459 658.987 118.049C663.192 126.548 664.892 136.659 664.087 148.38C663.371 158.311 661.492 166.99 658.45 174.417C655.408 181.843 650.979 188.33 645.163 193.877C639.437 199.335 632.19 204.166 623.421 208.372L607.316 216.961H554.169L560.209 180.59L594.029 180.993C599.577 180.814 604.05 179.427 607.45 176.832C610.85 174.148 613.445 170.703 615.234 166.498C617.024 162.203 618.187 157.596 618.724 152.675C619.261 149.364 619.663 145.785 619.932 141.938C620.2 138.001 619.574 134.646 618.053 131.872C616.532 129.009 613.445 127.398 608.792 127.041L586.379 126.906L558.598 285.945H514.04L547.727 90.5356ZM598.861 285.945L580.34 199.514L625.703 199.245L646.774 283.663V285.945H598.861ZM763.133 133.751L702.068 285.945H652.679L745.015 90.5356H776.152L763.133 133.751ZM764.744 285.945L756.154 129.188L757.228 90.5356H786.888L811.583 285.945H764.744ZM778.567 213.069L772.125 249.44H689.721L696.163 213.069H778.567ZM997.061 90.5356L963.24 285.945H919.622L892.78 162.606L871.306 285.945H826.614L860.301 90.5356H904.188L931.03 213.874L952.369 90.5356H997.061Z" fill="black"/>
<path d="M999.047 75.6431L1009.5 18.3379H993.82L963.62 75.6431H999.047Z" fill="#1A1A1A"/>
<path d="M930.515 18.3379H957.231L925.869 75.6431H900.314L930.515 18.3379Z" fill="#1A1A1A"/>
<path d="M895.668 18.3379H915.414L885.795 75.6431H865.467L895.668 18.3379Z" fill="#1A1A1A"/>
<path d="M853.852 18.3379H873.598L843.979 75.6431H823.651L853.852 18.3379Z" fill="#1A1A1A"/>
<path d="M803.905 18.3379H823.651L794.032 75.6431H773.704L803.905 18.3379Z" fill="#1A1A1A"/>
<path d="M762.089 18.3379H781.835L752.215 75.6431H731.888L762.089 18.3379Z" fill="#1A1A1A"/>
<path d="M496.093 33.2374H492.608V46.9907L496.093 33.2374Z" fill="#1A1A1A"/>
<path d="M524.55 37.8215L517.581 75.643H531.519C526.409 70.6001 526.292 57.4963 526.873 51.5748L529.196 37.8215H524.55Z" fill="#1A1A1A"/>
<path d="M615.153 41.26C627.698 56.3885 620.38 70.4856 615.153 75.6431H719.112L749.313 18.3379H620.38C626.885 21.547 626.962 34.9564 626.188 41.26H615.153Z" fill="#1A1A1A"/>
<path d="M580.887 75.6428H569.272C572.059 73.809 575.079 68.3841 576.241 65.9009C576.241 70.0269 579.338 74.1146 580.887 75.6428Z" fill="#1A1A1A"/>
<path d="M578.564 52.1481L580.887 41.8331C581.352 46.876 585.727 50.8109 587.857 52.1481H578.564Z" fill="#1A1A1A"/>
<path d="M588.436 18.3379H575.078C578.331 20.6301 580.305 27.3157 580.886 30.372C580.886 24.8707 585.92 20.057 588.436 18.3379Z" fill="#1A1A1A"/>
<path d="M600.108 59.6581C600.108 57.3659 598.172 56.4108 597.204 56.2198C595.605 55.9043 596.042 56.7928 596.042 59.6581C596.042 61.9503 597.591 62.5233 598.366 62.5233C598.946 62.5233 600.108 61.9503 600.108 59.6581Z" fill="#1A1A1A"/>
<path d="M549.534 56.5424C550.022 48.2799 551.974 37.4353 551.974 36.9189C552.95 32.2713 559.103 31.2384 558.806 38.4681C558.416 47.97 556.366 55.5096 555.39 58.0916C553.633 62.7392 549.29 60.6736 549.534 56.5424Z" fill="#1A1A1A"/>
<path d="M49.0436 17.317L39.0204 75H25.7485L35.7717 17.317H49.0436ZM62.5927 17.317L60.7307 28.0534H20.6775L22.5792 17.317H62.5927ZM93.1774 64.3033L91.3154 75H66.7526L68.6542 64.3033H93.1774ZM81.411 17.317L71.3878 75H58.2348L68.1788 17.317H81.411ZM94.1678 40.2159L92.385 50.5561H71.0312L72.8536 40.2159H94.1678ZM101.457 17.317L99.5954 28.0534H74.8741L76.7758 17.317H101.457ZM125.822 55.5082L138.698 55.3498C138.592 59.4964 137.549 63.128 135.568 66.2446C133.614 69.3347 130.999 71.725 127.724 73.4153C124.475 75.0792 120.791 75.8716 116.671 75.7923C113.079 75.7131 110.12 74.934 107.796 73.4549C105.472 71.9495 103.676 69.9686 102.408 67.5123C101.14 65.0296 100.335 62.2828 99.9916 59.2719C99.6746 56.261 99.701 53.2236 100.071 50.1599L101.339 42.1175C101.814 38.9217 102.62 35.792 103.755 32.7282C104.917 29.6381 106.462 26.8516 108.39 24.3689C110.319 21.8863 112.656 19.9318 115.403 18.5056C118.176 17.0793 121.372 16.4058 124.99 16.4851C129.19 16.5643 132.597 17.5283 135.211 19.3771C137.826 21.226 139.741 23.7087 140.956 26.8252C142.171 29.9418 142.765 33.4413 142.739 37.3238L129.467 37.2446C129.705 35.5543 129.771 33.9828 129.665 32.5301C129.586 31.0511 129.137 29.8361 128.318 28.8853C127.526 27.9345 126.113 27.4195 124.079 27.3402C122.151 27.261 120.606 27.6968 119.444 28.6476C118.282 29.5984 117.397 30.853 116.789 32.4113C116.182 33.9432 115.733 35.5675 115.442 37.2842C115.178 39.001 114.954 40.5857 114.769 42.0383L113.58 50.1995C113.448 51.3352 113.237 52.7218 112.946 54.3593C112.682 55.9968 112.564 57.608 112.59 59.1927C112.643 60.7773 113.012 62.1243 113.699 63.2336C114.412 64.3165 115.68 64.9108 117.502 65.0164C119.51 65.0692 121.108 64.6863 122.296 63.8675C123.485 63.0223 124.343 61.8734 124.871 60.4208C125.426 58.9417 125.743 57.3042 125.822 55.5082ZM192.062 17.317L182.079 75H169.203L161.28 38.5916L154.941 75H141.748L151.692 17.317H164.647L172.571 53.7254L178.87 17.317H192.062ZM213.495 17.317L203.512 75H190.28L200.303 17.317H213.495ZM240.316 17.317L258.778 17.3567C262.185 17.4359 265.117 18.1754 267.573 19.5752C270.056 20.9486 271.918 22.9031 273.159 25.4386C274.401 27.9477 274.902 30.9322 274.665 34.3921C274.453 37.3238 273.899 39.8858 273.001 42.0779C272.103 44.2701 270.795 46.1849 269.079 47.8225C267.388 49.4336 265.249 50.8598 262.661 52.1011L257.907 54.6366H242.218L244.001 43.9003L253.984 44.0192C255.622 43.9664 256.943 43.557 257.946 42.791C258.95 41.9987 259.716 40.9818 260.244 39.7405C260.772 38.4727 261.116 37.1125 261.274 35.6599C261.433 34.6827 261.551 33.6262 261.631 32.4905C261.71 31.3284 261.525 30.338 261.076 29.5192C260.627 28.674 259.716 28.1986 258.342 28.093L251.726 28.0534L243.525 75H230.372L240.316 17.317ZM255.411 75L249.943 49.4864L263.334 49.4071L269.554 74.3265V75H255.411ZM309.885 64.3033L308.023 75H283.46L285.361 64.3033H309.885ZM298.118 17.317L288.095 75H274.942L284.886 17.317H298.118ZM310.875 40.2159L309.092 50.5561H287.739L289.561 40.2159H310.875ZM318.165 17.317L316.303 28.0534H291.581L293.483 17.317H318.165ZM336.983 55.4686L325.058 55.429L326.92 44.6927L337.498 44.7719C339.083 44.7455 340.39 44.3493 341.42 43.5834C342.45 42.8175 343.243 41.827 343.797 40.6121C344.378 39.3707 344.774 38.0502 344.986 36.6503C345.144 35.6467 345.237 34.4978 345.263 33.2036C345.316 31.9095 345.091 30.7606 344.59 29.7569C344.114 28.7533 343.163 28.1986 341.737 28.093L334.725 28.0534L326.524 75H313.371L323.315 17.317L342.133 17.3567C345.778 17.4623 348.855 18.3867 351.364 20.1299C353.873 21.873 355.735 24.1709 356.95 27.0233C358.165 29.8758 358.627 33.0584 358.337 36.5711C358.02 40.4536 356.884 43.8079 354.93 46.6339C353.002 49.46 350.493 51.6521 347.402 53.2104C344.312 54.7423 340.839 55.495 336.983 55.4686ZM393.279 17.317H406.512L399.816 56.5779C399.288 60.5661 398.113 64.026 396.29 66.9577C394.494 69.8629 392.091 72.0947 389.08 73.653C386.069 75.1849 382.503 75.9244 378.383 75.8716C374.501 75.7923 371.252 74.9604 368.637 73.3757C366.023 71.7646 364.121 69.5328 362.932 66.6803C361.77 63.8015 361.4 60.434 361.823 56.5779L368.479 17.317H381.79L375.174 56.6175C374.989 57.9909 374.884 59.3247 374.857 60.6189C374.831 61.8866 375.121 62.9431 375.729 63.7883C376.336 64.607 377.512 65.0428 379.255 65.0956C381.104 65.2013 382.517 64.8711 383.494 64.1052C384.471 63.3393 385.184 62.296 385.633 60.9754C386.082 59.6284 386.412 58.1758 386.624 56.6175L393.279 17.317ZM439.037 64.3033L437.175 75H412.613L414.514 64.3033H439.037ZM427.271 17.317L417.248 75H404.095L414.039 17.317H427.271ZM440.028 40.2159L438.245 50.5561H416.891L418.714 40.2159H440.028ZM447.317 17.317L445.455 28.0534H420.734L422.636 17.317H447.317ZM468.711 59.3511C468.896 58.3211 468.909 57.3967 468.75 56.5779C468.592 55.7591 468.275 55.046 467.8 54.4386C467.351 53.8047 466.756 53.2236 466.017 52.6954C465.304 52.1672 464.511 51.6785 463.64 51.2296C461.712 50.3051 459.903 49.2751 458.212 48.1394C456.522 46.9773 455.03 45.6699 453.735 44.2173C452.468 42.7646 451.504 41.1271 450.843 39.3047C450.21 37.4823 449.959 35.3958 450.091 33.0452C450.249 30.404 450.923 28.0534 452.111 25.9933C453.3 23.9067 454.858 22.1636 456.786 20.7638C458.714 19.3375 460.867 18.2679 463.244 17.5547C465.621 16.8152 468.037 16.4719 470.494 16.5247C474.033 16.5775 477.004 17.3963 479.408 18.981C481.811 20.5657 483.62 22.705 484.835 25.399C486.05 28.093 486.618 31.1039 486.539 34.4318L473.425 34.4714C473.452 33.3885 473.425 32.2792 473.346 31.1435C473.267 30.0078 472.937 29.057 472.356 28.2911C471.801 27.4987 470.811 27.0893 469.384 27.0629C468.249 27.0365 467.245 27.3138 466.373 27.8949C465.502 28.4759 464.789 29.2419 464.234 30.1927C463.706 31.1171 463.349 32.1075 463.164 33.164C463.006 34.062 463.072 34.8808 463.363 35.6203C463.653 36.3598 464.089 37.0333 464.67 37.6408C465.251 38.2482 465.898 38.7897 466.611 39.2651C467.351 39.7405 468.051 40.1631 468.711 40.5328C470.797 41.4837 472.673 42.5533 474.337 43.7419C476 44.9304 477.413 46.2774 478.576 47.7828C479.764 49.2619 480.636 50.9522 481.19 52.8539C481.771 54.7291 481.983 56.8684 481.824 59.2719C481.639 61.9659 481.005 64.3561 479.923 66.4426C478.84 68.5027 477.413 70.2459 475.644 71.6721C473.874 73.072 471.854 74.1284 469.582 74.8415C467.311 75.5282 464.868 75.8584 462.253 75.832C459.374 75.7527 456.799 75.2377 454.528 74.2869C452.283 73.3097 450.394 71.9495 448.863 70.2063C447.331 68.4631 446.182 66.4162 445.416 64.0656C444.65 61.6885 444.293 59.087 444.346 56.261L457.658 56.3006C457.578 57.4627 457.552 58.5852 457.578 59.6681C457.605 60.7509 457.776 61.715 458.093 62.5601C458.41 63.4053 458.952 64.0788 459.718 64.5806C460.51 65.056 461.633 65.2937 463.085 65.2937C464.274 65.2937 465.251 65.0296 466.017 64.5014C466.783 63.9467 467.377 63.2204 467.8 62.3224C468.249 61.398 468.552 60.4076 468.711 59.3511ZM520.332 17.317L510.309 75H497.037L507.061 17.317H520.332ZM533.882 17.317L532.02 28.0534H491.966L493.868 17.317H533.882ZM574.767 41.6025L573.42 50.3184C572.944 53.6726 572.099 56.8948 570.884 59.985C569.696 63.0487 568.111 65.7823 566.13 68.1858C564.149 70.5893 561.733 72.4909 558.88 73.8907C556.054 75.2641 552.792 75.898 549.095 75.7923C545.555 75.7131 542.597 74.9472 540.22 73.4945C537.843 72.0419 535.981 70.1271 534.634 67.75C533.287 65.3466 532.402 62.6658 531.98 59.7077C531.557 56.7232 531.531 53.6726 531.901 50.5561L533.208 41.8006C533.683 38.5256 534.515 35.3562 535.704 32.2924C536.919 29.2287 538.53 26.4951 540.537 24.0916C542.545 21.6618 544.961 19.7733 547.787 18.4263C550.64 17.0529 553.915 16.419 557.612 16.5247C561.099 16.5775 564.017 17.3302 566.368 18.7829C568.745 20.2355 570.607 22.1504 571.954 24.5274C573.327 26.9045 574.225 29.5852 574.648 32.5697C575.097 35.5278 575.136 38.5388 574.767 41.6025ZM560.029 50.5561L561.376 41.6818C561.508 40.5461 561.653 39.1991 561.812 37.6408C561.97 36.0561 561.97 34.4978 561.812 32.9659C561.653 31.434 561.191 30.1399 560.425 29.0834C559.659 28.027 558.431 27.4591 556.741 27.3799C554.733 27.2478 553.122 27.644 551.907 28.5684C550.693 29.4664 549.728 30.6681 549.015 32.1736C548.329 33.6526 547.814 35.2505 547.47 36.9673C547.127 38.6576 546.85 40.2555 546.638 41.761L545.331 50.5957C545.199 51.7314 545.04 53.0916 544.856 54.6763C544.697 56.2346 544.684 57.7928 544.816 59.3511C544.948 60.9094 545.397 62.2168 546.163 63.2732C546.955 64.3297 548.21 64.8976 549.927 64.9768C551.855 65.0824 553.426 64.6731 554.641 63.7487C555.882 62.8242 556.86 61.6093 557.573 60.1039C558.312 58.5984 558.854 57.0005 559.197 55.3101C559.567 53.5934 559.844 52.0087 560.029 50.5561ZM602.142 59.3511C602.327 58.3211 602.34 57.3967 602.182 56.5779C602.023 55.7591 601.707 55.046 601.231 54.4386C600.782 53.8047 600.188 53.2236 599.448 52.6954C598.735 52.1672 597.943 51.6785 597.071 51.2296C595.143 50.3051 593.334 49.2751 591.644 48.1394C589.953 46.9773 588.461 45.6699 587.167 44.2173C585.899 42.7646 584.935 41.1271 584.275 39.3047C583.641 37.4823 583.39 35.3958 583.522 33.0452C583.681 30.404 584.354 28.0534 585.543 25.9933C586.731 23.9067 588.289 22.1636 590.217 20.7638C592.146 19.3375 594.298 18.2679 596.675 17.5547C599.052 16.8152 601.469 16.4719 603.925 16.5247C607.464 16.5775 610.436 17.3963 612.839 18.981C615.242 20.5657 617.052 22.705 618.267 25.399C619.482 28.093 620.049 31.1039 619.97 34.4318L606.857 34.4714C606.883 33.3885 606.857 32.2792 606.778 31.1435C606.698 30.0078 606.368 29.057 605.787 28.2911C605.232 27.4987 604.242 27.0893 602.816 27.0629C601.68 27.0365 600.676 27.3138 599.805 27.8949C598.933 28.4759 598.22 29.2419 597.666 30.1927C597.137 31.1171 596.781 32.1075 596.596 33.164C596.437 34.062 596.503 34.8808 596.794 35.6203C597.085 36.3598 597.52 37.0333 598.101 37.6408C598.682 38.2482 599.329 38.7897 600.043 39.2651C600.782 39.7405 601.482 40.1631 602.142 40.5328C604.229 41.4837 606.104 42.5533 607.768 43.7419C609.432 44.9304 610.845 46.2774 612.007 47.7828C613.196 49.2619 614.067 50.9522 614.622 52.8539C615.203 54.7291 615.414 56.8684 615.256 59.2719C615.071 61.9659 614.437 64.3561 613.354 66.4426C612.271 68.5027 610.845 70.2459 609.075 71.6721C607.306 73.072 605.285 74.1284 603.014 74.8415C600.743 75.5282 598.299 75.8584 595.685 75.832C592.806 75.7527 590.231 75.2377 587.959 74.2869C585.714 73.3097 583.826 71.9495 582.294 70.2063C580.762 68.4631 579.613 66.4162 578.847 64.0656C578.081 61.6885 577.725 59.087 577.778 56.261L591.089 56.3006C591.01 57.4627 590.983 58.5852 591.01 59.6681C591.036 60.7509 591.208 61.715 591.525 62.5601C591.842 63.4053 592.383 64.0788 593.149 64.5806C593.942 65.056 595.064 65.2937 596.517 65.2937C597.705 65.2937 598.682 65.0296 599.448 64.5014C600.214 63.9467 600.809 63.2204 601.231 62.3224C601.68 61.398 601.984 60.4076 602.142 59.3511Z" fill="white"/>
</svg>
