<svg width="22" height="21" viewBox="0 0 22 21" fill="none" xmlns="http://www.w3.org/2000/svg">
<path d="M10.6655 0.0833435C4.99939 0.0833435 0.213318 4.85314 0.213318 10.5C0.213318 16.1469 4.99939 20.9167 10.6655 20.9167C16.3317 20.9167 21.1178 16.1469 21.1178 10.5C21.1178 4.85314 16.3317 0.0833435 10.6655 0.0833435ZM10.6655 5.29168C12.4706 5.29168 13.8012 6.61668 13.8012 8.41668C13.8012 10.2167 12.4706 11.5417 10.6655 11.5417C8.86148 11.5417 7.52987 10.2167 7.52987 8.41668C7.52987 6.61668 8.86148 5.29168 10.6655 5.29168ZM5.32863 15.4708C6.2662 14.0958 7.82985 13.1792 9.62031 13.1792H11.7108C13.5023 13.1792 15.0649 14.0958 16.0024 15.4708C14.6666 16.8958 12.7717 17.7917 10.6655 17.7917C8.55941 17.7917 6.66443 16.8958 5.32863 15.4708Z" fill="#D6271F"/>
</svg>
