<svg width="20" height="20" viewBox="0 0 20 20" fill="none" xmlns="http://www.w3.org/2000/svg">
<circle cx="10" cy="10" r="10" fill="#D6271F"/>
<path d="M15.1078 6.14727L13.6518 4.69258C13.549 4.58942 13.427 4.50756 13.2925 4.45172C13.1581 4.39588 13.0139 4.36715 12.8684 4.36719C12.5717 4.36719 12.2928 4.4834 12.0836 4.69258L10.5168 6.25937C10.4136 6.36209 10.3318 6.48417 10.2759 6.61861C10.2201 6.75305 10.1914 6.8972 10.1914 7.04277C10.1914 7.33945 10.3076 7.61836 10.5168 7.82754L11.6625 8.97324C11.3943 9.56436 11.0215 10.1021 10.5619 10.5605C10.1035 11.0212 9.56582 11.3954 8.97461 11.6652L7.82891 10.5195C7.7262 10.4164 7.60411 10.3345 7.46967 10.2787C7.33523 10.2228 7.19108 10.1941 7.04551 10.1941C6.74883 10.1941 6.46992 10.3104 6.26074 10.5195L4.69258 12.085C4.58929 12.1879 4.50737 12.3102 4.45152 12.4449C4.39568 12.5795 4.36702 12.7239 4.36719 12.8697C4.36719 13.1664 4.4834 13.4453 4.69258 13.6545L6.1459 15.1078C6.47949 15.4428 6.94024 15.6328 7.41328 15.6328C7.51309 15.6328 7.60879 15.6246 7.70313 15.6082C9.54609 15.3047 11.374 14.3244 12.8492 12.8506C14.323 11.3781 15.302 9.55156 15.6096 7.70312C15.7025 7.13848 15.5152 6.55742 15.1078 6.14727Z" fill="white"/>
</svg>
