<svg width="21" height="21" viewBox="0 0 21 21" fill="none" xmlns="http://www.w3.org/2000/svg">
<path d="M9.25 9.25C9.25 8.58696 9.51339 7.95107 9.98223 7.48223C10.4511 7.01339 11.087 6.75 11.75 6.75C12.413 6.75 13.0489 7.01339 13.5178 7.48223C13.9866 7.95107 14.25 8.58696 14.25 9.25C14.25 9.91304 13.9866 10.5489 13.5178 11.0178C13.0489 11.4866 12.413 11.75 11.75 11.75C11.087 11.75 10.4511 11.4866 9.98223 11.0178C9.51339 10.5489 9.25 9.91304 9.25 9.25Z" fill="#D6271F"/>
<path fill-rule="evenodd" clip-rule="evenodd" d="M10.5 20.5C13.1522 20.5 15.6957 19.4464 17.5711 17.5711C19.4464 15.6957 20.5 13.1522 20.5 10.5C20.5 7.84784 19.4464 5.3043 17.5711 3.42893C15.6957 1.55357 13.1522 0.5 10.5 0.5C7.84784 0.5 5.3043 1.55357 3.42893 3.42893C1.55357 5.3043 0.5 7.84784 0.5 10.5C0.5 13.1522 1.55357 15.6957 3.42893 17.5711C5.3043 19.4464 7.84784 20.5 10.5 20.5ZM11.75 4.25C10.8683 4.24987 10.0023 4.48288 9.23973 4.9254C8.47716 5.36793 7.84515 6.00422 7.4078 6.76977C6.97046 7.53532 6.74331 8.40291 6.7494 9.28456C6.7555 10.1662 6.99461 11.0306 7.4425 11.79L4.61625 14.615C4.3817 14.8494 4.24986 15.1673 4.24975 15.4989C4.24969 15.6631 4.28197 15.8257 4.34475 15.9774C4.40753 16.1291 4.49957 16.267 4.61562 16.3831C4.73168 16.4993 4.86947 16.5914 5.02114 16.6543C5.17281 16.7172 5.33537 16.7496 5.49956 16.7496C5.83115 16.7497 6.1492 16.6181 6.38375 16.3837L9.21 13.5575C9.87231 13.9479 10.6157 14.1802 11.3824 14.2366C12.1491 14.2929 12.9185 14.1717 13.6308 13.8823C14.343 13.5929 14.9789 13.1432 15.4891 12.5681C15.9993 11.993 16.37 11.308 16.5724 10.5664C16.7748 9.82469 16.8034 9.04635 16.6561 8.29181C16.5088 7.53728 16.1895 6.82688 15.7229 6.21583C15.2564 5.60478 14.6553 5.10954 13.9662 4.76859C13.2772 4.42765 12.5188 4.25019 11.75 4.25Z" fill="#D6271F"/>
</svg>
